<svg preserveAspectRatio="none" overflow="visible" style="display: block;" width="108.14" height="28.5004" viewBox="0 0 108.14 28.5004" fill="none" xmlns="http://www.w3.org/2000/svg">
<g id="Camada 1">
<g id="Group">
<path id="Vector" d="M49.7473 14.7863C48.9265 15.0303 48.1701 15.3103 47.3462 15.4542C43.3648 16.1533 41.697 13.6571 42.3568 13.2004C42.4611 13.1284 42.7035 13.1206 42.8002 13.2129C43.7545 14.131 45.1246 14.1451 46.3596 13.7681C47.9369 13.2864 49.3054 12.4606 50.9133 12.0711C52.4016 11.7098 54.8978 11.7911 54.8917 13.4772L54.8763 17.9192V26.8203C54.8763 27.0252 54.7014 27.227 54.5588 27.2629C54.3931 27.3067 54.189 27.1957 54.1046 27.0205C53.8376 26.4653 53.4111 25.9992 52.7836 25.8975C52.2742 25.8146 51.7434 25.9429 51.2846 26.2119C49.2272 27.4178 46.9672 28.0074 44.5799 27.9996C42.0453 27.9902 39.5889 27.3537 37.4348 25.9835C35.0122 24.4429 33.165 22.1359 32.1585 19.4035C30.3634 14.5283 31.2502 8.80064 34.6977 4.91392C37.0758 2.23154 40.3791 0.586132 43.9171 0.293651C45.9331 0.127859 47.8878 0.435981 49.7504 1.18674L51.6667 2.04228C52.5842 2.45207 53.451 2.64289 54.1721 1.85459C54.2964 1.71852 54.5112 1.6716 54.6401 1.74355C55.3259 2.12205 53.9374 4.2398 53.1856 4.99525C52.7882 5.39565 52.2343 5.59898 51.6974 5.54267C51.1604 5.48637 50.6817 5.17981 50.2889 4.79348C48.9832 3.51407 47.877 2.32225 46.0006 1.87023C44.6367 1.54178 43.265 1.69662 41.9594 2.21433C38.426 3.61574 36.3762 7.17713 35.7717 10.9012C35.3774 13.3286 35.4725 15.7795 36.1476 18.1397C36.5803 19.6569 37.2078 21.0458 38.1114 22.322C39.4616 24.2255 41.3886 25.6113 43.6379 26.1759C46.0252 26.7765 48.5383 26.2916 50.5881 24.9403C50.921 24.7213 51.2309 24.4492 51.4703 24.152C51.5424 24.0613 51.5639 23.8048 51.5639 23.6781L51.5731 15.0679C51.5731 14.8896 51.4519 14.6675 51.3521 14.5768C51.2524 14.486 50.9916 14.4125 50.8458 14.4563L49.7473 14.7832V14.7863Z" fill="white"/>
<path id="Vector_2" d="M96.3181 22.7256C95.6062 23.1025 95.0247 23.6046 94.4831 24.1848L92.4962 26.3104C92.0528 26.7859 91.5757 27.1769 91.0187 27.5038C89.598 28.3375 87.7032 28.156 86.8041 26.7374C85.5798 24.8073 86.3776 21.9107 87.18 19.8211C88.0054 17.6689 88.9521 15.6184 89.9233 13.5257L92.398 8.19065C93.09 6.69853 93.607 5.17825 93.9937 3.58446C94.1594 2.8994 94.2085 2.25031 94.1394 1.55586C94.0765 0.930232 94.4647 0.409397 95.0523 0.21076C95.887 -0.0723373 96.8136 -0.0566966 97.656 0.235785C98.3172 0.465703 98.7698 1.00844 98.9892 1.68099L99.9343 4.59798L101.593 8.86633L105.159 18.2523L107.799 25.4908C107.951 25.9085 108.063 26.3042 108.127 26.7218C108.209 27.2426 107.906 27.6618 107.406 27.7666C106.492 27.959 105.567 27.9934 104.629 27.8886C104.029 27.8213 103.512 27.5101 103.196 26.9845L102.319 25.5237C101.717 24.5227 100.959 23.6609 100.019 22.993C98.9064 22.2016 97.5562 22.0765 96.3211 22.7287L96.3181 22.7256ZM95.2993 21.565C96.7109 20.8205 98.2374 20.6766 99.7533 21.063C100.691 21.3023 101.518 21.7246 102.343 22.2376C102.401 22.2736 102.573 22.3064 102.579 22.2454L102.604 21.9873L101.047 17.378C99.6582 13.2629 98.2068 9.21825 96.6035 5.19389L96.1524 4.14284C96.134 4.09904 96.0281 4.00207 95.9959 4.02709L95.8547 4.1444C95.0646 6.47643 94.1901 8.73964 93.2572 11.0279L90.8807 17.084L89.7115 20.5546C89.5044 21.1678 89.4446 21.8012 89.5213 22.4378C89.6272 23.3043 90.3268 23.8861 91.1783 23.8282C91.5987 23.8001 92.0191 23.675 92.3766 23.4419L93.6162 22.6286L95.2993 21.5666V21.565Z" fill="white"/>
<path id="Vector_3" d="M70.5703 22.9649C68.608 21.5807 66.5966 22.5316 65.0731 24.177L63.3363 26.0539C62.8438 26.5857 62.3298 27.0565 61.7268 27.4412C60.2432 28.3891 58.1443 28.1638 57.2759 26.5122C55.9718 24.03 57.4739 20.4733 58.5248 17.9473C59.4423 15.742 60.4503 13.6336 61.4844 11.4799C62.7011 8.94453 63.9699 6.21836 64.6082 3.49374C64.7616 2.83996 64.7969 2.20964 64.7309 1.5496C64.6695 0.933358 65.0255 0.425035 65.5962 0.217013C66.3864 -0.0692119 67.2533 -0.0613916 68.071 0.176347C68.7967 0.387497 69.3306 0.94587 69.5638 1.68568L70.5059 4.66054L72.2948 9.41845L76.333 20.2809L78.3506 25.8506C78.4595 26.1509 78.5439 26.4512 78.5853 26.753C78.6574 27.2739 78.3245 27.6649 77.8427 27.7713C76.9774 27.9621 76.1044 27.9824 75.2145 27.8823C74.5686 27.8104 74.0531 27.4397 73.7125 26.8797L72.6615 25.1483C72.1245 24.2646 71.4019 23.5514 70.5703 22.9649ZM65.5686 21.7339C67.1228 20.8143 68.8612 20.6188 70.5627 21.1208C71.4004 21.3695 72.1429 21.7605 72.8932 22.2219C72.93 22.247 73.1187 22.3142 73.1264 22.2595L73.1602 22.0123L71.8622 18.1569C70.5136 14.1529 69.1128 10.2161 67.6153 6.2731L66.7638 4.16004L66.5966 4.03178C66.5582 4.00207 66.46 4.1444 66.4355 4.18663C65.7144 6.30282 64.9334 8.35018 64.0942 10.4304L61.3479 17.4562C60.9106 18.5761 60.547 19.6631 60.2432 20.8205C60.1128 21.3179 60.0668 21.82 60.102 22.3236C60.1726 23.2933 60.9658 23.9393 61.9109 23.8063C62.5246 23.7203 63.0632 23.4044 63.5864 23.0556L65.5671 21.7339H65.5686Z" fill="white"/>
<path id="Vector_4" d="M84.4122 27.2457C84.4122 27.7009 84.1284 27.9996 83.7877 27.9996H80.9448C80.5842 27.9996 80.3172 27.6586 80.3172 27.2176L80.3372 6.85649L80.3126 1.06943C80.3111 0.675284 80.598 0.339009 80.9325 0.337445L83.7003 0.323368C84.1253 0.321804 84.4567 0.606465 84.4536 1.13356L84.4107 10.1645V27.2442L84.4122 27.2457Z" fill="white"/>
</g>
<path id="Vector_5" d="M26.7197 9.31751C25.4846 5.95945 23.0022 3.24735 19.7849 1.78964C18.4731 1.19529 17.0938 0.81053 15.6592 0.622841C13.1062 0.28813 10.5102 0.646302 8.15515 1.6692C4.53889 3.23953 1.8079 6.3145 0.62345 10.1371C-0.996732 15.3626 0.62345 21.0324 4.52508 24.7455C5.35819 25.5385 8.59088 28.3976 13.4698 28.4977C21.3621 28.6604 25.8329 21.4406 26.0569 21.0653C26.06 21.0574 26.0861 20.998 26.0569 20.9526C26.037 20.9214 26.0032 20.9135 25.9864 20.9088C25.8667 20.8791 25.7102 21.0121 25.6764 21.0434C25.6734 21.0449 25.6718 21.048 25.6688 21.0496C25.4125 21.2185 24.5718 21.7206 23.5193 21.5376C22.838 21.4187 22.367 21.0715 22.1553 20.8995C21.7334 20.5538 21.4066 20.1378 21.1273 19.6592L21.1212 19.6482L20.598 18.5565L20.595 18.5487L19.745 16.3809L16.7946 8.8608L14.8921 3.93554C14.5193 2.97208 14.5377 1.93823 15.5365 1.56441C15.9922 1.39393 16.4724 1.38454 16.9633 1.47526C17.8793 1.64418 18.7278 1.98202 19.5578 2.4137C20.2927 2.7969 20.9632 3.24422 21.5339 3.84952C22.5849 4.96627 22.9746 6.25819 22.7368 7.81913C22.6079 8.6653 22.3747 9.43638 22.0586 10.2075L21.6091 11.3039C21.5554 11.4353 21.3636 11.3915 21.3682 11.2491C21.3912 10.6845 21.3575 10.1121 21.2593 9.54587C21.1519 8.92962 20.8067 8.43694 20.285 8.12569C20.0871 8.00839 19.9045 7.88326 19.725 7.74249C19.6376 7.67367 19.5133 7.74249 19.524 7.85354L19.5808 8.49638V8.50732C19.5747 9.122 19.857 9.63033 20.3449 9.98537C21.4756 10.8128 21.1626 12.2345 20.7453 13.467C20.5627 14.0066 20.4369 14.5243 20.3817 15.0983C20.2129 16.8313 21.066 18.5049 22.5588 19.3448C23.2584 19.7389 24.0409 19.8781 24.8234 19.7201C26.6415 19.3542 27.3012 17.5164 27.5145 15.7881C27.786 13.589 27.4838 11.3805 26.7243 9.31438L26.7197 9.31751ZM5.72641 22.8154C5.73868 23.1236 5.7755 23.3957 5.81693 23.6225C5.83841 23.7429 5.69726 23.8227 5.60827 23.7382C5.1618 23.3128 4.76289 22.8937 4.35785 22.4401C2.67016 20.4428 0.746191 17.3709 2.22982 14.8324C2.34336 14.6369 2.71618 13.9644 3.49559 13.6531C4.37933 13.2996 5.22164 13.6297 5.48093 13.7438C5.48246 13.7438 5.48553 13.7454 5.48706 13.747C5.63282 13.8283 5.77244 13.9081 5.9274 13.9691C6.86483 14.3397 7.39262 13.8142 7.253 13.6688C7.23152 13.6453 7.17168 13.6312 7.14407 13.65C6.86637 13.8267 6.5319 13.761 6.24959 13.6078C5.88751 13.4107 5.59446 13.1417 5.2201 12.9649C5.17561 12.9446 5.12651 12.9243 5.07435 12.9055C5.07435 12.9055 5.07128 12.9055 5.06974 12.9039C4.3962 12.5942 3.35904 12.9727 2.7392 13.3247C2.6318 13.3857 2.51213 13.2684 2.56736 13.1557C2.83586 12.6114 3.21022 12.1266 3.69658 11.7418C4.1231 11.404 4.58338 11.2272 5.08048 11.0787C6.01485 10.7987 6.73135 10.1371 7.09037 9.21116C7.33585 8.58866 7.42944 7.94269 7.47854 7.27171C7.50615 6.89477 7.55525 6.53972 7.61662 6.15809C7.63503 6.04391 7.50769 5.96571 7.41717 6.03609C7.04281 6.32544 6.6485 6.53972 6.22198 6.72585C5.8737 6.87756 5.54843 7.01364 5.22164 7.20758C4.31489 7.74562 3.74107 8.68406 3.68124 9.76171L3.59532 10.7111C3.59225 10.7424 3.57844 10.7705 3.55696 10.7909C3.15192 11.1834 2.69317 11.7027 2.26051 12.3643C2.04418 12.6943 1.8662 13.015 1.71738 13.3153C1.6913 13.3669 1.61612 13.3481 1.61612 13.2903C1.64987 11.8091 1.94445 9.09542 3.66896 6.42867C3.66896 6.42867 5.90745 2.77031 9.99473 1.61603C10.7235 1.41113 11.5796 1.29383 12.2348 1.64105C13.0694 2.08212 13.0448 3.03933 12.7134 3.9027C9.13094 12.6631 6.60708 19.0898 6.12685 20.4083C5.97342 20.8291 5.67578 21.6971 5.72181 22.8186L5.72641 22.8154ZM10.7941 27.1292C10.8754 27.2371 10.7527 27.381 10.6345 27.3184C8.92995 26.4019 7.93421 24.7486 7.70868 22.7326C7.5307 20.926 7.9603 19.4793 8.64611 17.8308C8.66299 17.7885 8.71976 17.7854 8.74123 17.8261C9.33193 18.9193 10.3752 19.3854 11.5658 19.5669C12.1979 19.6373 12.807 19.656 13.4438 19.6482C14.3474 19.6357 15.2772 19.7968 15.8817 20.4928C16.4371 21.1309 16.4478 22.0522 15.894 22.6919C15.5871 23.0454 15.1897 23.2753 14.7356 23.3895C13.9316 23.5912 13.0356 23.3597 11.8696 23.8837C11.4032 24.0933 11.0073 24.3842 10.7158 24.8049C10.1911 25.562 10.2816 26.4519 10.7941 27.1307V27.1292ZM17.5433 16.9815L18.7093 19.8437C19.386 21.5063 20.5489 23.0094 22.2704 23.5537C22.2811 23.5568 22.2949 23.5803 22.3087 23.6084C22.5281 24.0698 21.0629 25.2789 20.1209 25.9045C19.6238 26.2345 18.8229 26.7585 17.6123 27.1026C17.0201 27.2715 14.1311 28.0942 12.9359 26.7491C12.8377 26.638 12.4373 26.186 12.4756 25.5807C12.5048 25.1115 12.7656 24.7142 13.14 24.4515C13.5435 24.1684 14.0099 24.0479 14.507 24.0292L15.782 23.9822H15.7927C16.3604 23.9197 16.8989 23.7523 17.3577 23.4192C18.1048 22.8749 18.4163 21.9583 18.1309 21.0668C17.8118 20.0721 16.8544 19.4715 15.8617 19.2603C15.5288 19.1899 15.2818 19.1571 15.1192 19.1446C13.008 18.9835 11.0672 18.8364 10.1482 17.7995C9.86892 17.4851 9.49763 16.8782 9.51143 15.6974C9.51143 15.688 9.51297 15.6786 9.51604 15.6708L11.6809 10.159L13.2029 6.33952C13.2213 6.29416 13.2842 6.29416 13.3011 6.33952L14.2324 8.6825L17.5448 16.9815H17.5433ZM26.1705 14.8528C25.9741 16.1369 25.3542 17.4397 24.1959 18.0278C23.1342 18.5674 21.8224 18.1967 21.4649 17.0049C21.1703 16.0211 21.6214 14.9935 22.5527 14.579L23.2185 14.3178C23.6619 14.1442 23.9995 13.8252 24.2434 13.4169L24.2511 13.4029L24.5641 12.7053L24.8234 12.1172C24.8679 12.0155 24.7712 11.9076 24.6684 11.9452C24.3999 12.0421 24.133 12.1141 23.8507 12.1672C23.1311 12.3049 22.5496 12.7115 22.14 13.3294C21.6521 14.0692 21.3237 14.8981 21.1596 15.7771C21.1473 15.8413 21.1381 15.9038 21.1319 15.9664C21.1166 16.1118 20.9095 16.1197 20.8849 15.9758C20.644 14.565 21.2301 12.9024 21.9696 11.759C22.255 11.318 22.5926 10.9629 22.927 10.5688C23.3904 10.0213 23.7417 9.42074 23.9182 8.71691C24.067 8.14133 24.0885 7.5767 24.0317 6.98548C24.0194 6.8541 24.1851 6.79154 24.2588 6.90102L24.7329 7.60016L24.7375 7.60642C26.0354 9.77735 26.5556 12.3362 26.1705 14.8528Z" fill="white"/>
</g>
</svg>
